<svg width="414" height="443" viewBox="0 0 414 443" fill="none" xmlns="http://www.w3.org/2000/svg">
<path d="M413.5 148C413.5 115 386.5 88 353.5 88C320.5 88 293.5 115 293.5 148C293.5 174 309.5 196 332.5 204V327C332.5 398 260.5 403 238.5 403C216.5 403 144.5 398 144.5 327V280C201.5 271 248.5 228 248.5 182V58C248.5 37 236.5 18 218.5 9C202.5 1 187.5 -1.00001 175.5 3.99999C164.5 7.99999 159.5 19 163.5 30C167.5 41 179.5 47 189.5 43C190.5 43 193.5 43 200.5 46C204.5 48 207.5 53 207.5 58V181C207.5 204 172.5 239 124.5 239C76.5 239 41.5 204 41.5 181V58C41.5 53 44.5 48 48.5 46C54.5 43 58.5 43 59.5 43C70.5 47 82.5 41 86.5 30C90.5 19 84.5 6.99999 73.5 2.99999C60.5 -2.00001 45.5 9.83477e-07 30.5 8C11.5 17 0.5 36 0.5 57V180C0.5 227 47.5 269 104.5 278V325C104.5 406 172.5 443 239.5 443C306.5 443 374.5 407 374.5 325V204C396.5 196 413.5 174 413.5 148ZM353.5 129C363.5 129 372.5 137 372.5 148C372.5 158 364.5 167 353.5 167C343.5 167 334.5 159 334.5 148C334.5 138 342.5 129 353.5 129Z" fill="white"/>
</svg>
