<svg width="57" height="70" viewBox="0 0 57 70" fill="none" xmlns="http://www.w3.org/2000/svg">
<path d="M48.4868 8.36544H37.6182C37.076 3.66407 33.076 0 28.2315 0C23.3872 0 19.3877 3.66392 18.8456 8.36544H7.9764C3.57795 8.36544 0 11.9444 0 16.3427V16.752C0 20.1131 2.09284 22.99 5.04106 24.1622V61.8463C5.04106 66.2447 8.61944 69.8235 13.0176 69.8235H43.4457C47.844 69.8235 51.4221 66.2444 51.4221 61.8463V24.1623C54.3702 22.99 56.4632 20.1131 56.4632 16.7522V16.3428C56.4632 11.9444 52.885 8.36544 48.4868 8.36544ZM28.2315 3.78318C30.9868 3.78318 33.2866 5.75807 33.7955 8.36544H22.6686C23.1773 5.75792 25.4773 3.78318 28.2315 3.78318ZM47.639 61.8463C47.639 64.1588 45.7574 66.0405 43.4456 66.0405H13.0175C10.7056 66.0405 8.8241 64.1587 8.8241 61.8463V24.7293H47.639V61.8463ZM52.68 16.752C52.68 19.0646 50.7985 20.9462 48.4867 20.9462H7.9764C5.66457 20.9462 3.78304 19.0646 3.78304 16.752V16.3427C3.78304 14.0302 5.66457 12.1485 7.9764 12.1485H48.4868C50.7986 12.1485 52.6802 14.0302 52.6802 16.3427L52.68 16.752Z" fill="black"/>
<path d="M18.09 61.2024C19.1347 61.2024 19.9815 60.3552 19.9815 59.311V38.0129C19.9815 36.9685 19.1345 36.1212 18.09 36.1212C17.0455 36.1212 16.1985 36.9685 16.1985 38.0129V59.311C16.1983 60.3555 17.0453 61.2024 18.09 61.2024Z" fill="black"/>
<path d="M28.2315 61.2024C29.2762 61.2024 30.1231 60.3552 30.1231 59.311V38.0129C30.1231 36.9685 29.2759 36.1212 28.2315 36.1212C27.1869 36.1212 26.34 36.9685 26.34 38.0129V59.311C26.34 60.3555 27.1868 61.2024 28.2315 61.2024Z" fill="black"/>
<path d="M38.373 61.2024C39.4175 61.2024 40.2644 60.3552 40.2644 59.311V38.0129C40.2644 36.9685 39.4174 36.1212 38.373 36.1212C37.3282 36.1212 36.4813 36.9685 36.4813 38.0129V59.311C36.4812 60.3555 37.3284 61.2024 38.373 61.2024Z" fill="black"/>
</svg>
